HIERARCHY
ROOT Hips
{
  OFFSET 0.0 0.0 0.0
  CHANNELS 6 XPOSITION YPOSITION ZPOSITION ZROTATION XROTATION YROTATION 
  JOINT RightUpLeg
  {
    OFFSET -0.089458 -0.0866707 0.00101652
    CHANNELS 3 ZROTATION XROTATION YROTATION 
    JOINT RightLeg
    {
      OFFSET 0.0 -0.444227 0.013727
      CHANNELS 3 ZROTATION XROTATION YROTATION 
      JOINT RightFoot
      {
        OFFSET 0.00253549 -0.420924 -0.0146059
        CHANNELS 3 ZROTATION XROTATION YROTATION 
        End Site
        {
          OFFSET 0.0004 -0.0441509 0.084991
        }
      }
    }
  }
  JOINT Spine
  {
    OFFSET 0.0 0.118905 0.0
    CHANNELS 3 ZROTATION XROTATION YROTATION 
    JOINT Spine1
    {
      OFFSET 0.0 0.256574 0.00127663
      CHANNELS 3 ZROTATION XROTATION YROTATION 
      End Site
      {
        OFFSET -0.0029 0.2150836 0.02525291
      }
      JOINT RightArm
      {
        OFFSET -0.162727 -0.05365632 0.00102123
        CHANNELS 3 ZROTATION XROTATION YROTATION 
        JOINT RightForeArm
        {
          OFFSET -0.26364 0.00099144 -0.0142434
          CHANNELS 3 ZROTATION XROTATION YROTATION 
          End Site
          {
            OFFSET -0.220324 0.00085362 0.0102216
          }
        }
      }
      JOINT LeftArm
      {
        OFFSET 0.162727 -0.0536563199 0.00102123
        CHANNELS 3 ZROTATION XROTATION YROTATION 
        JOINT LeftForeArm
        {
          OFFSET 0.262597 0.00099144 -0.0142434
          CHANNELS 3 ZROTATION XROTATION YROTATION 
          End Site
          {
            OFFSET 0.220902 0.00085362 0.0102216
          }
        }
      }
    }
  }
  JOINT LeftUpLeg
  {
    OFFSET 0.089458 -0.0866707 0.00101652
    CHANNELS 3 ZROTATION XROTATION YROTATION 
    JOINT LeftLeg
    {
      OFFSET 0.0 -0.444227 0.013727
      CHANNELS 3 ZROTATION XROTATION YROTATION 
      JOINT LeftFoot
      {
        OFFSET -0.00253549 -0.420924 -0.0146059
        CHANNELS 3 ZROTATION XROTATION YROTATION 
        End Site
        {
          OFFSET -0.0004 -0.0441509 0.084991
        }
      }
    }
  }
}
MOTION
Frames: 6
Frame Time: 0.033333
-1.03638 0.985244597207 -1.08794 -0.827802012015 0.720089982165 90.0069966182 4.17425004757 -6.18051993229 2.68670997842 -1.25659002897 13.7283003025 -15.231099868 2.611325394 -51.1488722224 2.34425752693 -4.82442984193 6.22811012911 -1.19892999888 3.15030992211 5.46321986896 -2.12311008887 77.9366248452 -15.7902618421 11.6258818448 2.9543900012 54.9945009515 14.4579002558 -104.668735332 -55.7019173042 -36.1691608819 -175.091994996 58.8848981556 173.686000555 -2.71179000617 -11.33650039 -3.7396899338 2.38406002743 20.0833004053 9.10700967795 -15.3220233462 -53.5855080578 -12.4066604056 
-1.03537 0.985094597207 -1.08651 -0.780265976465 0.8151179772 90.0676008867 4.19305014326 -6.10658014632 2.72524996115 -1.30566002896 13.8283002483 -15.3308001393 2.59912817024 -51.3036408939 2.35244073389 -4.81871980379 6.49284015049 -1.30264001813 3.06200005846 5.16477005742 -2.21392001521 78.0928244414 -16.1115146671 11.6667246685 3.22408002057 55.1907015505 14.1369001478 -105.069264455 -55.8536875227 -36.6088816304 -175.145994472 58.3797988363 174.082998471 -2.73962003883 -11.2359002413 -3.79095989503 2.40741009633 20.1096000487 9.06666972694 -15.4950303303 -53.6315708536 -12.4585391074 
-1.03419 0.985174597207 -1.08514 -0.797361993319 0.958742021129 90.0946006245 4.15906995214 -6.04110979492 2.74051991625 -1.37805000232 13.8233995876 -15.3529999616 2.6181562235 -51.3956025608 2.36048285475 -4.75975008493 6.49820014144 -1.35122998388 2.87913006772 5.11167003238 -2.21870989881 78.2322695835 -16.4888689584 11.6419976761 3.47480004331 55.2565001779 13.8426001031 -105.631470986 -55.8528235037 -37.1423364801 -175.14700534 57.9383022385 174.508000162 -2.79579002046 -11.0850000182 -3.70931992454 2.42397992181 19.9165003556 8.97236018242 -15.5550898913 -53.584719171 -12.4525541542 
-1.03317 0.985174597207 -1.08386 -0.900538991003 1.09645997914 90.0473971871 4.1181899893 -6.13794010612 2.75485989842 -1.423899995 13.9278997743 -15.3093994491 2.59834248505 -51.5008865118 2.36322688325 -4.75935009197 6.4635501649 -1.32024002824 2.9033100046 5.0606899273 -2.18816998859 78.0482847778 -16.0944682225 11.4877882264 3.19795006469 54.8575010171 14.2000998882 -105.996039163 -55.6531702441 -37.4289346328 -175.134997867 57.887301216 174.585003714 -2.83918007782 -11.0700999605 -3.63393000403 2.40242000281 19.8015004605 9.00505971308 -15.5043893971 -53.5719296417 -12.437572988 
-1.03241 0.984864597207 -1.08247 -0.999434047048 1.19431001624 90.0159031849 4.11332988282 -6.34334993456 2.77289010372 -1.42482004283 14.2322000698 -15.3006004579 2.56766533072 -51.6974832618 2.37271444289 -4.78290015734 6.57072992024 -1.30234002341 3.10081004709 4.96113010175 -2.21615007197 77.7299501511 -15.2621003891 11.3902121439 2.76824002556 54.2791991454 14.7668997214 -106.25408371 -55.41490251 -37.6826829906 -175.132006244 58.0608973039 174.433004684 -2.85821005207 -11.2187001174 -3.7856899772 2.35774992531 19.9992993238 9.18434961747 -15.703098383 -53.6758031586 -12.5171318852 
-1.03152 0.984284597207 -1.08079 -1.01503003697 1.23732003761 90.0807011895 4.17347012535 -6.4862699354 2.78562990063 -1.39394001054 14.6268005887 -15.3790007843 2.57551748694 -51.9831695842 2.39234867543 -4.69285008955 6.66844986358 -1.35576000013 3.2260099759 5.06728020608 -2.30275004046 77.6633011652 -15.0788617816 11.4983033026 2.71226000856 54.1390983051 14.8461999252 -106.399027154 -55.1114064693 -37.9182323094 -175.110996582 58.3530996268 174.204002102 -2.80206995252 -11.3904998656 -4.06459989818 2.27151003586 20.425899279 9.36250997933 -16.1348909895 -53.8726560407 -12.6808660338 
